<svg xmlns="http://www.w3.org/2000/svg" viewBox="0 0 32 32" fill="none">
  <defs>
    <linearGradient id="trackGradient" x1="0%" y1="0%" x2="100%" y2="100%">
      <stop offset="0%" stop-color="#10b981" />
      <stop offset="50%" stop-color="#3b82f6" />
      <stop offset="100%" stop-color="#8b5cf6" />
    </linearGradient>
  </defs>
  
  <!-- Background Circle -->
  <circle cx="16" cy="16" r="15" fill="#000000" stroke="url(#trackGradient)" stroke-width="2"/>
  
  <!-- Simplified Nürburgring Track Layout -->
  <path d="M 6 16 Q 8 12 12 14 Q 16 16 20 14 Q 24 12 26 16 Q 24 20 20 18 Q 16 16 12 18 Q 8 20 6 16 Z" 
        fill="none" 
        stroke="url(#trackGradient)" 
        stroke-width="2" 
        stroke-linecap="round"/>
  
  <!-- Start/Finish Line -->
  <rect x="5" y="15" width="2" height="2" fill="#10b981"/>
  
  <!-- Racing Car Dot -->
  <circle cx="20" cy="14" r="1.5" fill="#10b981">
    <animateMotion dur="3s" repeatCount="indefinite" rotate="auto">
      <mpath href="#track-path"/>
    </animateMotion>
  </circle>
  
  <!-- Hidden path for animation -->
  <path id="track-path" d="M 6 16 Q 8 12 12 14 Q 16 16 20 14 Q 24 12 26 16 Q 24 20 20 18 Q 16 16 12 18 Q 8 20 6 16 Z" fill="none" stroke="none"/>
</svg>
